<svg version="1" xmlns="http://www.w3.org/2000/svg" width="682.667" height="682.667" viewBox="0 0 512.000000 512.000000"><path d="M237.8.5c-.2.1-3.2.6-6.8.9-5.7.6-12.8 1.6-22.5 3.2-1.6.3-3.8.7-4.7 1-.9.3-2.5.6-3.5.8-27.1 5.4-61.9 20.6-87.6 38.3-21.3 14.7-43.5 35.5-57.3 53.8-2.1 2.7-4 5.2-4.4 5.5-1.1 1-13.7 20.6-16.7 26-1.7 3-4.1 7.3-5.3 9.4-3.6 6.5-12.6 28.5-15.8 38.6-5.1 16-7.5 27.4-11.1 53-.9 6.6-.7 47.5.2 52 .3 1.4.8 4.5 1.1 7 1.9 15.7 5.1 29.3 11.3 48 3.7 11.2 4.3 12.7 10.5 26.2 19.5 42.6 51.5 79.4 92.6 106.6 3.5 2.3 6.5 4.2 6.8 4.2.2 0 3.2 1.7 6.6 3.8 19.4 11.7 49.4 22.9 75.3 28.1 9.7 1.9 11.6 2.2 23.5 3.8 7.5.9 44.9 1 53.5 0 6.1-.7 17.6-2.5 26.9-4.3 10.3-1.9 34.1-9.4 47.1-14.9 6.5-2.7 25.8-12.6 28.6-14.6 1.5-1 3-1.9 3.3-1.9.3 0 5.3-3.2 11.1-7.1 55.3-37.6 94.6-96.7 107.5-161.7 3.2-16.3 3.5-20.7 3.5-50.7 0-26-.4-33.5-2-41.6-.3-1.3-.8-4-1.1-5.9-2.3-14.4-9.7-38.3-16.6-54C463.9 90.7 412 41.1 348.7 17.1 328 9.2 309.6 4.7 285 1.4 280.3.8 238.4 0 237.8.5zm-2.1 146.1c3.6.7 16.5 6.7 22.8 10.6 2.7 1.8 9.8 6.8 15.7 11.2 5.9 4.4 11.4 8.1 12.2 8.2.8.1 4.9.5 9.2.9 8.5.7 11.2 1 18.9 2.1 5.8.8 5.6.8 11.5 2.4 21.4 5.6 46.7 18.7 74 38.1 3.6 2.6 11.2 7 16.9 9.9 15.8 8 22.5 15.3 26 28.1 1.2 4.4 2.9 7 7.4 11.8 8.3 8.9 10.9 13.3 10.1 16.5-1.2 4.9-6.1 5.9-14.1 2.7-2.6-1-6.6-2.1-8.8-2.5-10-1.4-20.4-3.6-24.9-5.1-3.9-1.3-7.1-1.6-15.8-1.1-11.4.6-12.6.9-25.3 7.9-3.7 2.1-5.2 2.2-23.5 2.1-10.7 0-20.8-.3-22.4-.5-4.2-.8-5.5-3.2-3.2-5.8 1.1-1.2 2.2-2.1 2.7-2.1.4 0 4.5-2.1 9-4.6l8.4-4.5-9.5.8c-11.4.9-48 1.1-53.3.2-4.2-.8-6.7-2.4-6.7-4.6 0-1.2-2.7-1.3-17.7-.8-18 .6-25.4 1-33 2-2.4.3-6.4.7-9 1-2.7.3-5.9.8-7.3 1-1.4.3-4 .7-5.8 1-7 1.1-17.9 3.6-22.7 5.1-20 6.3-44.2 19.4-47.8 25.8-.8 1.4-1.2 9.3-1.2 24.8 0 24.7-.4 26.4-4.8 23.5-3.3-2.1-9.6-9.9-12.7-15.6-4.1-7.6-4.7-7.7-34.5-7.1-11.3.2-20.4-.6-21.8-2-1.8-1.6-.1-4.3 3.4-5.5 1.9-.7 6-2.4 9-3.8s8.8-4 12.9-5.7c4.1-1.8 10.3-4.6 13.8-6.1 3.4-1.6 6.7-2.9 7.2-2.9 1.3 0 9-7 9-8.2 0-2.4 10.2-16.3 20-27.2 4-4.5 19.2-19.2 26.5-25.7 21.6-19.3 47.5-37.3 73.5-51.2 9.3-4.9 10.3-6.1 9.6-11.3-.8-6.8-5.5-19.6-9.1-25-1.9-2.8-3.5-5.8-3.5-6.8 0-1.7 3.8-3.8 5.3-2.9.4.2 1.9.7 3.4.9z"/></svg>