<?xml version="1.0" encoding="UTF-8" standalone="no"?>
<!DOCTYPE svg PUBLIC "-//W3C//DTD SVG 1.1//EN" "http://www.w3.org/Graphics/SVG/1.1/DTD/svg11.dtd">
<svg version="1.1" xmlns="http://www.w3.org/2000/svg" xmlns:xlink="http://www.w3.org/1999/xlink" preserveAspectRatio="xMidYMid meet" viewBox="0 0 511.99999999999955 512.0000000000002" width="512" height="512"><defs><path d="M287.3 1.9L297.5 3.35L307.57 5.2L317.49 7.45L327.26 10.07L336.88 13.06L346.33 16.42L355.61 20.13L364.7 24.19L373.6 28.59L382.31 33.32L390.81 38.38L399.09 43.75L407.15 49.42L414.98 55.39L422.56 61.66L429.9 68.2L436.98 75.02L443.8 82.1L450.34 89.44L456.61 97.02L462.58 104.85L468.25 112.91L473.62 121.19L478.68 129.69L483.41 138.4L487.81 147.3L491.87 156.39L495.58 165.67L498.94 175.12L501.93 184.74L504.55 194.51L506.8 204.43L508.65 214.5L510.1 224.7L511.15 235.02L511.79 245.45L512 256L511.79 266.55L511.15 276.98L510.1 287.3L508.65 297.5L506.8 307.57L504.55 317.49L501.93 327.26L498.94 336.88L495.58 346.33L491.87 355.61L487.81 364.7L483.41 373.6L478.68 382.31L473.62 390.81L468.25 399.09L462.58 407.15L456.61 414.98L450.34 422.56L443.8 429.9L436.98 436.98L429.9 443.8L422.56 450.34L414.98 456.61L407.15 462.58L399.09 468.25L390.81 473.62L382.31 478.68L373.6 483.41L364.7 487.81L355.61 491.87L346.33 495.58L336.88 498.94L327.26 501.93L317.49 504.55L307.57 506.8L297.5 508.65L287.3 510.1L276.98 511.15L266.55 511.79L256 512L245.45 511.79L235.02 511.15L224.7 510.1L214.5 508.65L204.43 506.8L194.51 504.55L184.74 501.93L175.12 498.94L165.67 495.58L156.39 491.87L147.3 487.81L138.4 483.41L129.69 478.68L121.19 473.62L112.91 468.25L104.85 462.58L97.02 456.61L89.44 450.34L82.1 443.8L75.02 436.98L68.2 429.9L61.66 422.56L55.39 414.98L49.42 407.15L43.75 399.09L38.38 390.81L33.32 382.31L28.59 373.6L24.19 364.7L20.13 355.61L16.42 346.33L13.06 336.88L10.07 327.26L7.45 317.49L5.2 307.57L3.35 297.5L1.9 287.3L0.85 276.98L0.21 266.55L0 256L0.21 245.45L0.85 235.02L1.9 224.7L3.35 214.5L5.2 204.43L7.45 194.51L10.07 184.74L13.06 175.12L16.42 165.67L20.13 156.39L24.19 147.3L28.59 138.4L33.32 129.69L38.38 121.19L43.75 112.91L49.42 104.85L55.39 97.02L61.66 89.44L68.2 82.1L75.02 75.02L82.1 68.2L89.44 61.66L97.02 55.39L104.85 49.42L112.91 43.75L121.19 38.38L129.69 33.32L138.4 28.59L147.3 24.19L156.39 20.13L165.67 16.42L175.12 13.06L184.74 10.07L194.51 7.45L204.43 5.2L214.5 3.35L224.7 1.9L235.02 0.85L245.45 0.21L256 0L266.55 0.21L276.98 0.85L276.98 0.85L287.3 1.9ZM229.06 145.51L228.92 145.53L228.78 145.55L228.64 145.57L228.5 145.6L228.37 145.64L228.24 145.67L228.11 145.72L227.98 145.77L227.85 145.83L227.73 145.89L227.61 145.96L227.49 146.03L227.37 146.11L227.26 146.2L227.15 146.29L227.04 146.4L226.93 146.51L226.83 146.62L226.73 146.75L226.63 146.88L226.54 147.02L226.45 147.18L226.36 147.33L226.28 147.49L226.21 147.64L226.15 147.79L226.1 147.95L226.05 148.1L226.02 148.25L225.99 148.4L225.96 148.55L225.94 148.7L225.93 148.85L225.93 149L225.93 149.15L225.94 149.3L225.96 149.45L225.98 149.59L226 149.74L226.03 149.89L226.07 150.03L226.11 150.18L226.16 150.32L226.21 150.47L226.27 150.61L226.33 150.75L226.4 150.89L226.47 151.04L226.54 151.18L226.62 151.32L226.7 151.46L226.78 151.59L226.87 151.73L226.96 151.87L227.06 152.01L227.15 152.14L227.25 152.28L227.36 152.41L227.46 152.54L227.57 152.68L227.67 152.81L228.06 153.28L228.43 153.76L228.8 154.24L229.15 154.72L229.49 155.21L229.83 155.71L230.15 156.21L230.47 156.71L230.78 157.21L231.07 157.72L231.37 158.24L231.65 158.76L231.92 159.28L232.19 159.8L232.45 160.33L232.71 160.86L232.95 161.4L233.19 161.93L233.43 162.47L233.66 163.01L233.88 163.56L234.1 164.11L234.31 164.66L234.52 165.21L234.72 165.76L234.92 166.32L235.12 166.88L235.31 167.44L235.5 168L235.68 168.56L235.86 169.12L236.04 169.69L236.22 170.25L236.39 170.82L236.56 171.39L236.73 171.96L236.9 172.53L237.07 173.1L237.23 173.67L237.4 174.24L237.44 174.39L237.48 174.54L237.53 174.7L237.57 174.85L237.61 175L237.66 175.16L237.7 175.31L237.74 175.46L237.78 175.62L237.82 175.77L237.86 175.92L237.9 176.08L237.94 176.23L237.98 176.38L238.02 176.54L238.06 176.69L238.1 176.85L238.14 177L238.18 177.16L238.22 177.31L238.25 177.47L238.29 177.62L238.33 177.77L238.36 177.93L238.4 178.08L238.43 178.24L238.47 178.39L238.5 178.55L238.53 178.71L238.57 178.86L238.6 179.02L238.63 179.17L238.66 179.33L238.69 179.48L238.72 179.64L238.75 179.8L238.78 179.95L238.81 180.11L238.84 180.26L238.87 180.42L238.92 180.74L238.97 181.06L239.01 181.36L239.05 181.66L239.07 181.94L239.1 182.22L239.11 182.49L239.12 182.75L239.12 183L239.12 183.24L239.11 183.48L239.09 183.71L239.06 183.93L239.02 184.15L238.98 184.36L238.93 184.57L238.87 184.77L238.8 184.96L238.73 185.15L238.64 185.34L238.55 185.52L238.45 185.7L238.34 185.87L238.22 186.04L238.09 186.21L237.95 186.38L237.8 186.54L237.64 186.7L237.47 186.86L237.29 187.02L237.1 187.18L236.91 187.33L236.7 187.49L236.48 187.65L236.25 187.8L236 187.96L235.75 188.12L235.49 188.28L235.21 188.44L234.93 188.6L234.8 188.67L234.67 188.74L234.54 188.81L234.41 188.88L234.28 188.95L234.15 189.02L234.02 189.09L233.89 189.16L233.76 189.23L233.63 189.3L233.5 189.36L233.37 189.43L233.24 189.5L233.11 189.56L232.98 189.63L232.85 189.69L232.72 189.76L232.59 189.83L232.46 189.89L232.32 189.96L232.19 190.02L232.06 190.09L231.93 190.15L231.8 190.22L231.67 190.28L231.54 190.35L231.41 190.41L231.27 190.48L231.14 190.55L231.01 190.61L230.88 190.68L230.75 190.74L230.62 190.81L230.49 190.88L230.36 190.94L230.23 191.01L230.1 191.08L229.97 191.15L229.84 191.22L229.71 191.28L227.44 192.5L225.19 193.73L222.94 194.97L220.71 196.22L218.48 197.5L216.27 198.78L214.06 200.08L211.87 201.4L209.69 202.72L207.51 204.07L205.35 205.42L203.2 206.8L201.05 208.18L198.92 209.58L196.8 210.99L194.68 212.42L192.58 213.86L190.48 215.31L188.4 216.78L186.33 218.26L184.26 219.76L182.21 221.27L180.16 222.79L178.13 224.32L176.1 225.87L174.09 227.44L172.08 229.01L170.08 230.6L168.1 232.2L166.12 233.82L164.15 235.44L162.19 237.08L160.24 238.74L158.3 240.41L156.37 242.08L154.45 243.78L152.53 245.48L150.63 247.2L148.74 248.93L146.85 250.67L145.91 251.55L144.97 252.44L144.03 253.32L143.09 254.21L142.16 255.1L141.23 256L140.3 256.89L139.38 257.8L138.46 258.7L137.54 259.61L136.63 260.52L135.72 261.44L134.82 262.36L133.92 263.28L133.03 264.21L132.14 265.14L131.26 266.08L130.38 267.02L129.51 267.97L128.64 268.92L127.78 269.88L126.92 270.84L126.07 271.81L125.23 272.78L124.39 273.76L123.56 274.75L122.73 275.74L121.91 276.73L121.1 277.74L120.3 278.74L119.5 279.76L118.72 280.78L117.93 281.81L117.16 282.85L116.4 283.89L115.64 284.94L114.89 285.99L114.15 287.06L113.42 288.13L112.7 289.21L112.59 289.36L112.49 289.51L112.39 289.67L112.29 289.82L112.19 289.97L112.09 290.13L111.99 290.28L111.88 290.43L111.78 290.59L111.68 290.74L111.58 290.89L111.48 291.05L111.38 291.2L111.28 291.36L111.18 291.51L111.09 291.67L110.99 291.83L110.89 291.98L110.79 292.14L110.7 292.29L110.6 292.45L110.51 292.61L110.41 292.77L110.32 292.92L110.23 293.08L110.13 293.24L110.04 293.4L109.95 293.56L109.87 293.72L109.78 293.88L109.69 294.04L109.61 294.2L109.52 294.37L109.44 294.53L109.35 294.69L109.27 294.86L109.19 295.02L109.12 295.18L109.04 295.35L108.96 295.52L108.81 295.85L108.65 296.17L108.48 296.49L108.31 296.8L108.13 297.11L107.95 297.4L107.76 297.69L107.57 297.98L107.37 298.25L107.16 298.52L106.96 298.78L106.74 299.04L106.52 299.29L106.3 299.54L106.07 299.78L105.83 300.01L105.6 300.24L105.35 300.46L105.1 300.68L104.85 300.89L104.6 301.1L104.33 301.3L104.07 301.5L103.8 301.69L103.53 301.88L103.25 302.06L102.97 302.24L102.68 302.42L102.39 302.59L102.1 302.76L101.8 302.93L101.5 303.09L101.2 303.25L100.89 303.41L100.58 303.56L100.27 303.71L99.95 303.86L99.63 304.01L99.3 304.15L98.98 304.29L97.98 304.71L96.99 305.14L96 305.57L95.01 305.99L94.01 306.42L93.02 306.85L92.03 307.28L91.04 307.71L90.05 308.14L89.05 308.57L88.06 309L87.07 309.43L86.08 309.86L85.09 310.29L84.1 310.72L83.11 311.16L82.12 311.59L81.13 312.03L80.14 312.46L79.15 312.89L78.16 313.33L77.17 313.76L76.18 314.2L75.19 314.64L74.2 315.07L73.22 315.51L72.23 315.94L71.24 316.38L70.25 316.82L69.26 317.25L68.27 317.69L67.28 318.13L66.3 318.56L65.31 319L64.32 319.44L63.33 319.87L62.34 320.31L61.35 320.75L60.37 321.18L59.38 321.62L59.31 321.65L59.24 321.68L59.17 321.71L59.1 321.74L59.03 321.78L58.96 321.81L58.89 321.84L58.82 321.87L58.75 321.9L58.68 321.94L58.62 321.97L58.55 322L58.48 322.03L58.41 322.07L58.34 322.1L58.27 322.13L58.2 322.17L58.14 322.2L58.07 322.23L58 322.27L57.93 322.3L57.86 322.34L57.79 322.37L57.73 322.41L57.66 322.44L57.59 322.48L57.52 322.51L57.45 322.55L57.39 322.58L57.32 322.62L57.25 322.65L57.19 322.69L57.12 322.73L57.05 322.76L56.98 322.8L56.92 322.83L56.85 322.87L56.78 322.91L56.72 322.95L56.65 322.98L56.51 322.93L56.36 322.88L56.22 322.85L56.08 322.82L55.95 322.8L55.81 322.79L55.67 322.79L55.54 322.8L55.41 322.81L55.28 322.84L55.15 322.86L55.03 322.9L54.91 322.94L54.79 322.99L54.68 323.05L54.56 323.11L54.46 323.18L54.35 323.25L54.25 323.33L54.15 323.41L54.06 323.5L53.97 323.59L53.88 323.69L53.8 323.78L53.72 323.89L53.65 323.99L53.59 324.1L53.52 324.21L53.47 324.33L53.42 324.44L53.37 324.56L53.33 324.68L53.3 324.8L53.27 324.93L53.25 325.05L53.23 325.17L53.22 325.3L53.22 325.42L53.22 325.54L53.24 325.67L53.21 325.7L53.19 325.74L53.16 325.77L53.14 325.8L53.11 325.84L53.09 325.87L53.06 325.91L53.04 325.94L53.02 325.98L52.99 326.01L52.97 326.04L52.94 326.08L52.87 326.18L52.85 326.22L52.82 326.25L52.8 326.29L52.77 326.32L52.75 326.35L52.73 326.39L52.7 326.42L52.68 326.46L52.65 326.49L52.63 326.53L52.6 326.56L52.58 326.59L52.55 326.63L52.53 326.66L52.51 326.69L52.48 326.73L52.46 326.76L52.43 326.79L52.41 326.83L52.38 326.86L52.36 326.89L52.33 326.93L52.3 326.96L52.28 326.99L52.25 327.02L52.33 327.07L52.4 327.12L52.47 327.17L52.54 327.22L52.62 327.27L52.69 327.32L52.76 327.38L52.83 327.43L52.9 327.48L52.97 327.54L53.05 327.59L53.12 327.65L53.19 327.7L53.26 327.76L53.33 327.81L53.4 327.87L53.48 327.92L53.55 327.97L53.62 328.03L53.69 328.08L53.76 328.13L53.84 328.18L53.91 328.23L53.98 328.28L54.05 328.33L54.13 328.37L54.2 328.42L54.27 328.46L54.35 328.5L54.42 328.54L54.5 328.58L54.57 328.61L54.65 328.64L54.72 328.68L54.8 328.7L54.88 328.73L54.95 328.75L55.03 328.77L55.11 328.79L55.19 328.81L55.46 328.85L55.74 328.9L56.02 328.95L56.29 329L56.57 329.04L56.85 329.09L57.13 329.14L57.41 329.19L57.68 329.23L57.96 329.28L58.24 329.33L58.52 329.37L58.8 329.42L59.07 329.46L59.35 329.51L59.63 329.55L59.91 329.59L60.19 329.63L60.47 329.68L60.75 329.71L61.03 329.75L61.3 329.79L61.58 329.83L61.86 329.86L62.14 329.89L62.42 329.92L62.7 329.95L62.98 329.98L63.26 330.01L63.54 330.03L63.82 330.06L64.1 330.08L64.37 330.1L64.65 330.11L64.93 330.13L65.21 330.14L65.49 330.15L65.77 330.16L66.05 330.16L66.33 330.16L67.01 330.16L67.69 330.16L68.36 330.16L69.04 330.16L69.72 330.16L70.4 330.15L71.08 330.15L71.76 330.14L72.44 330.13L73.11 330.12L73.79 330.11L74.47 330.1L75.15 330.09L75.83 330.08L76.51 330.06L77.19 330.05L77.87 330.04L78.54 330.02L79.22 330.01L79.9 329.99L80.58 329.97L81.26 329.96L81.94 329.94L82.62 329.92L83.29 329.91L83.97 329.89L84.65 329.87L85.33 329.85L86.01 329.83L86.69 329.82L87.37 329.8L88.05 329.78L88.72 329.76L89.4 329.75L90.08 329.73L90.76 329.71L91.44 329.7L92.12 329.68L92.8 329.67L93.47 329.65L93.56 329.65L93.65 329.65L93.73 329.65L93.82 329.64L93.9 329.64L93.99 329.64L94.07 329.64L94.16 329.64L94.25 329.64L94.33 329.64L94.42 329.63L94.5 329.63L94.59 329.63L94.76 329.63L94.84 329.63L94.93 329.63L95.02 329.63L95.1 329.62L95.19 329.62L95.27 329.62L95.36 329.62L95.44 329.62L95.53 329.62L95.62 329.62L95.7 329.61L95.79 329.61L95.87 329.61L95.96 329.61L96.04 329.61L96.13 329.6L96.21 329.6L96.3 329.6L96.39 329.6L96.47 329.59L96.56 329.59L96.64 329.59L96.73 329.58L96.81 329.58L96.9 329.58L97.35 329.56L97.8 329.55L98.25 329.55L98.68 329.57L99.11 329.59L99.54 329.62L99.96 329.66L100.37 329.71L100.78 329.77L101.18 329.84L101.57 329.92L101.96 330.01L102.34 330.11L102.72 330.22L103.09 330.35L103.45 330.48L103.81 330.63L104.16 330.78L104.5 330.95L104.84 331.13L105.17 331.32L105.5 331.53L105.81 331.74L106.12 331.97L106.43 332.21L106.73 332.46L107.02 332.72L107.3 333L107.58 333.29L107.85 333.59L108.11 333.91L108.37 334.24L108.62 334.58L108.86 334.93L109.1 335.3L109.32 335.69L109.55 336.08L109.76 336.49L109.97 336.92L110.17 337.36L110.37 337.8L110.57 338.23L110.78 338.66L111 339.09L111.23 339.51L111.46 339.93L111.69 340.34L111.94 340.75L112.19 341.15L112.44 341.55L112.7 341.94L112.97 342.34L113.24 342.72L113.51 343.11L113.79 343.49L114.08 343.87L114.37 344.24L114.66 344.61L114.96 344.98L115.26 345.34L115.57 345.7L115.88 346.06L116.19 346.41L116.51 346.77L116.83 347.11L117.16 347.46L117.48 347.81L117.82 348.15L118.15 348.49L118.48 348.83L118.82 349.16L119.16 349.49L119.51 349.83L119.85 350.16L120.2 350.48L120.55 350.81L120.9 351.14L121.25 351.46L121.61 351.78L121.96 352.1L121.99 352.13L122.01 352.15L122.04 352.17L122.06 352.2L122.09 352.22L122.12 352.24L122.14 352.26L122.17 352.29L122.2 352.31L122.22 352.33L122.25 352.35L122.28 352.38L122.31 352.4L122.33 352.42L122.36 352.44L122.39 352.47L122.42 352.49L122.44 352.51L122.47 352.53L122.5 352.55L122.53 352.57L122.56 352.6L122.58 352.62L122.61 352.64L122.64 352.66L122.67 352.68L122.7 352.7L122.73 352.72L122.76 352.74L122.79 352.76L122.81 352.78L122.84 352.8L122.87 352.83L122.9 352.85L122.93 352.87L122.96 352.89L122.99 352.9L123.02 352.92L123.05 352.94L123.08 352.96L123.12 353L123.16 353.04L123.21 353.08L123.25 353.11L123.29 353.15L123.34 353.18L123.38 353.22L123.43 353.25L123.48 353.28L123.53 353.31L123.57 353.34L123.62 353.37L123.67 353.4L123.72 353.42L123.77 353.45L123.82 353.47L123.88 353.5L123.93 353.52L123.98 353.54L124.03 353.56L124.09 353.58L124.14 353.6L124.19 353.62L124.25 353.63L124.3 353.65L124.35 353.66L124.41 353.68L124.46 353.69L124.52 353.7L124.57 353.71L124.63 353.72L124.68 353.72L124.74 353.73L124.79 353.74L124.85 353.74L124.9 353.74L124.96 353.74L125.01 353.74L125.07 353.74L125.12 353.74L125.17 353.74L125.22 353.75L125.27 353.75L125.32 353.75L125.37 353.75L125.41 353.74L125.46 353.74L125.51 353.73L125.55 353.73L125.6 353.72L125.64 353.71L125.69 353.7L125.73 353.69L125.77 353.68L125.82 353.67L125.86 353.66L125.9 353.64L125.94 353.63L125.98 353.61L126.02 353.59L126.06 353.57L126.09 353.55L126.13 353.53L126.17 353.51L126.2 353.49L126.24 353.46L126.27 353.44L126.31 353.41L126.34 353.38L126.37 353.35L126.41 353.32L126.44 353.29L126.47 353.26L126.5 353.23L126.53 353.19L126.55 353.15L126.58 353.12L126.61 353.08L126.63 353.04L126.66 353L126.67 352.98L126.69 352.96L126.7 352.94L126.72 352.92L126.73 352.9L126.75 352.87L126.76 352.85L126.78 352.83L126.79 352.81L126.81 352.79L126.82 352.76L126.83 352.74L126.85 352.72L126.86 352.69L126.87 352.67L126.88 352.65L126.9 352.62L126.91 352.6L126.92 352.57L126.93 352.55L126.94 352.52L126.95 352.5L126.97 352.47L126.98 352.44L126.99 352.42L127 352.39L127.01 352.36L127.02 352.34L127.03 352.31L127.04 352.28L127.04 352.25L127.05 352.22L127.06 352.19L127.07 352.17L127.08 352.14L127.09 352.11L127.09 352.08L127.1 352.05L127.11 352.01L127.11 351.98L127.14 351.83L127.17 351.68L127.2 351.53L127.23 351.38L127.25 351.23L127.28 351.08L127.3 350.93L127.32 350.78L127.34 350.63L127.36 350.48L127.38 350.33L127.4 350.18L127.41 350.03L127.43 349.88L127.44 349.73L127.45 349.58L127.46 349.43L127.47 349.28L127.48 349.13L127.49 348.98L127.5 348.83L127.5 348.68L127.5 348.53L127.51 348.38L127.51 348.23L127.51 348.08L127.51 347.93L127.51 347.79L127.5 347.64L127.5 347.49L127.49 347.34L127.49 347.19L127.48 347.04L127.47 346.9L127.46 346.75L127.45 346.6L127.44 346.45L127.42 346.31L127.41 346.16L127.39 346.01L127.39 345.93L127.4 345.84L127.4 345.76L127.41 345.67L127.41 345.59L127.41 345.5L127.42 345.42L127.42 345.33L127.42 345.25L127.43 345.16L127.43 345.08L127.43 344.99L127.44 344.91L127.44 344.82L127.44 344.74L127.44 344.65L127.45 344.57L127.45 344.48L127.45 344.4L127.45 344.31L127.46 344.23L127.46 344.14L127.46 344.06L127.46 343.97L127.46 343.89L127.47 343.8L127.47 343.72L127.47 343.63L127.47 343.55L127.47 343.46L127.47 343.38L127.47 343.29L127.48 343.21L127.48 343.13L127.48 343.04L127.48 342.96L127.48 342.87L127.48 342.79L127.48 342.7L127.48 342.62L127.48 341.8L127.48 340.99L127.48 340.18L127.48 339.36L127.48 338.55L127.48 337.74L127.47 336.92L127.47 336.11L127.47 335.3L127.47 334.48L127.47 333.67L127.47 332.86L127.47 332.04L127.46 331.23L127.46 330.42L127.46 329.6L127.45 328.79L127.45 327.98L127.45 327.16L127.44 326.35L127.44 325.54L127.43 324.72L127.43 323.91L127.42 323.1L127.42 322.28L127.41 321.47L127.4 320.66L127.39 319.85L127.39 319.03L127.38 318.22L127.37 317.41L127.36 316.59L127.35 315.78L127.34 314.97L127.33 314.15L127.31 313.34L127.3 312.53L127.29 311.72L127.28 310.9L127.26 310.09L127.26 309.73L127.27 309.38L127.28 309.03L127.31 308.7L127.34 308.36L127.39 308.04L127.44 307.72L127.5 307.4L127.57 307.1L127.65 306.79L127.74 306.5L127.83 306.21L127.93 305.92L128.05 305.64L128.16 305.37L128.29 305.1L128.42 304.83L128.57 304.57L128.72 304.31L128.87 304.06L129.03 303.81L129.21 303.57L129.38 303.33L129.57 303.09L129.76 302.86L129.95 302.63L130.16 302.4L130.37 302.18L130.58 301.96L130.81 301.74L131.03 301.53L131.27 301.32L131.51 301.11L131.75 300.9L132 300.7L132.26 300.49L132.52 300.29L132.79 300.09L133.06 299.9L133.34 299.7L134.7 298.76L136.07 297.83L137.45 296.91L138.84 296.02L140.23 295.14L141.63 294.27L143.04 293.42L144.45 292.59L145.87 291.77L147.29 290.97L148.72 290.19L150.16 289.42L151.61 288.67L153.06 287.94L154.52 287.22L155.99 286.51L157.46 285.83L158.94 285.16L160.42 284.5L161.92 283.86L163.42 283.24L164.92 282.64L166.44 282.05L167.96 281.47L169.49 280.92L171.02 280.38L172.56 279.85L174.11 279.34L175.67 278.85L177.23 278.37L178.8 277.91L180.37 277.47L181.96 277.04L183.55 276.63L185.15 276.23L186.75 275.85L188.36 275.49L189.98 275.14L191.61 274.81L193.24 274.5L195.19 274.14L197.13 273.79L199.08 273.46L201.03 273.14L202.98 272.83L204.92 272.54L206.87 272.25L208.83 271.98L210.78 271.72L212.73 271.47L214.68 271.23L216.64 271L218.59 270.78L220.55 270.57L222.5 270.37L224.46 270.18L226.42 270L228.38 269.83L230.34 269.67L232.3 269.52L234.26 269.37L236.22 269.24L238.18 269.11L240.14 269L242.1 268.89L244.07 268.78L246.03 268.69L248 268.6L249.96 268.52L251.93 268.45L253.9 268.38L255.86 268.33L257.83 268.27L259.8 268.23L261.77 268.19L263.74 268.15L265.71 268.12L267.68 268.1L269.65 268.08L271.62 268.07L271.65 268.07L271.67 268.07L271.69 268.07L271.72 268.07L271.74 268.07L271.77 268.07L271.79 268.07L271.81 268.07L271.84 268.08L271.86 268.08L271.88 268.08L271.91 268.08L271.93 268.08L271.96 268.09L271.98 268.09L272 268.09L272.03 268.1L272.05 268.1L272.07 268.1L272.1 268.11L272.12 268.11L272.15 268.11L272.17 268.12L272.19 268.12L272.22 268.12L272.31 268.14L272.34 268.14L272.36 268.15L272.39 268.15L272.41 268.15L272.44 268.16L272.46 268.16L272.48 268.16L272.51 268.17L272.53 268.17L272.56 268.17L272.58 268.18L272.52 268.4L272.47 268.62L272.41 268.83L272.37 269.03L272.33 269.23L272.29 269.41L272.26 269.6L272.24 269.77L272.22 269.94L272.2 270.1L272.2 270.26L272.2 270.41L272.2 270.56L272.21 270.7L272.23 270.83L272.26 270.97L272.29 271.09L272.33 271.21L272.37 271.33L272.42 271.44L272.48 271.55L272.55 271.65L272.62 271.75L272.71 271.85L272.8 271.94L272.89 272.03L273 272.12L273.11 272.21L273.24 272.29L273.37 272.37L273.51 272.44L273.65 272.52L273.81 272.59L273.97 272.66L274.15 272.73L274.33 272.8L274.53 272.87L274.73 272.93L274.94 273L275.16 273.06L275.33 273.11L275.5 273.16L275.67 273.2L275.84 273.25L276.01 273.29L276.18 273.34L276.35 273.38L276.52 273.42L276.69 273.46L276.87 273.5L277.04 273.54L277.21 273.58L277.39 273.61L277.56 273.65L277.73 273.69L277.91 273.72L278.08 273.76L278.25 273.79L278.43 273.82L278.6 273.85L278.78 273.88L278.95 273.91L279.13 273.94L279.3 273.97L279.48 274L279.65 274.02L279.83 274.05L280 274.07L280.18 274.1L280.35 274.12L280.53 274.14L280.7 274.16L280.88 274.18L281.06 274.2L281.23 274.22L281.41 274.24L281.58 274.26L281.76 274.27L281.93 274.29L282.11 274.3L283.39 274.4L284.68 274.49L285.96 274.58L287.25 274.66L288.53 274.73L289.81 274.79L291.1 274.85L292.38 274.89L293.66 274.94L294.95 274.97L296.23 275L297.51 275.02L298.8 275.04L300.08 275.04L301.36 275.05L302.65 275.04L303.93 275.03L305.21 275.02L306.49 274.99L307.78 274.97L309.06 274.93L310.34 274.89L311.62 274.85L312.9 274.8L314.19 274.74L315.47 274.68L316.75 274.61L318.03 274.54L319.31 274.46L320.59 274.38L321.87 274.3L323.16 274.2L324.44 274.11L325.72 274.01L327 273.9L328.28 273.79L329.56 273.68L330.84 273.56L332.12 273.44L333.4 273.32L333.59 273.3L333.77 273.28L333.96 273.26L334.14 273.25L334.32 273.23L334.51 273.22L334.69 273.2L334.88 273.19L335.06 273.18L335.25 273.16L335.43 273.15L335.62 273.14L335.8 273.13L335.99 273.12L336.17 273.11L336.36 273.09L336.54 273.08L336.73 273.07L336.91 273.06L337.1 273.05L337.28 273.05L337.47 273.04L337.66 273.03L337.84 273.02L338.03 273.01L338.21 273L338.58 272.98L338.77 272.97L338.95 272.96L339.14 272.95L339.32 272.95L339.51 272.94L339.69 272.93L339.88 272.92L340.06 272.91L340.25 272.9L340.43 272.89L340.62 272.88L340.8 272.87L340.84 272.99L340.87 273.1L340.88 273.17L340.9 273.22L340.92 273.31L340.95 273.41L340.97 273.5L340.55 273.72L340.12 273.94L339.7 274.16L339.27 274.38L338.84 274.6L338.42 274.82L337.99 275.04L337.57 275.26L337.14 275.49L336.71 275.71L336.29 275.93L335.86 276.15L335.44 276.37L335.01 276.59L334.58 276.81L334.16 277.03L333.31 277.47L332.03 278.13L331.18 278.57L330.75 278.8L330.32 279.02L329.9 279.24L329.47 279.46L329.05 279.68L328.62 279.9L328.19 280.12L327.77 280.34L327.34 280.56L326.92 280.78L326.49 281L326.06 281.22L325.64 281.44L325.21 281.66L324.79 281.88L324.36 282.1L323.93 282.33L323.79 282.4L323.65 282.47L323.51 282.54L323.36 282.61L323.22 282.68L323.07 282.75L322.92 282.82L322.78 282.89L322.63 282.96L322.49 283.03L322.34 283.11L322.2 283.18L322.06 283.26L321.92 283.34L321.78 283.42L321.65 283.5L321.51 283.59L321.38 283.67L321.26 283.76L321.14 283.86L321.02 283.95L320.91 284.05L320.8 284.15L320.69 284.26L320.6 284.37L320.5 284.49L320.42 284.61L320.34 284.73L320.26 284.86L320.19 284.99L320.13 285.13L320.08 285.27L320.04 285.42L320 285.58L319.97 285.74L319.95 285.91L319.94 286.08L319.94 286.27L319.94 286.45L319.96 286.65L319.99 286.86L320.03 287.05L320.07 287.24L320.12 287.42L320.19 287.59L320.25 287.75L320.33 287.9L320.41 288.05L320.5 288.18L320.6 288.31L320.7 288.43L320.81 288.54L320.92 288.65L321.04 288.75L321.16 288.84L321.29 288.93L321.42 289.01L321.56 289.09L321.7 289.16L321.84 289.23L321.99 289.29L322.14 289.35L322.29 289.4L322.45 289.45L322.61 289.5L322.77 289.54L322.93 289.58L323.09 289.62L323.26 289.65L323.42 289.69L323.59 289.72L323.75 289.75L323.92 289.78L324.08 289.8L324.25 289.83L324.41 289.86L324.57 289.88L324.73 289.91L324.89 289.94L325.05 289.96L325.23 289.99L325.4 290.02L325.57 290.05L325.75 290.08L325.92 290.11L326.1 290.13L326.27 290.16L326.45 290.18L326.62 290.21L326.8 290.23L326.97 290.25L327.15 290.27L327.33 290.29L327.5 290.31L327.68 290.33L327.86 290.35L328.03 290.36L328.21 290.38L328.39 290.39L328.56 290.41L328.74 290.42L328.92 290.44L329.09 290.45L329.27 290.46L329.45 290.47L329.63 290.48L329.8 290.49L329.98 290.5L330.16 290.51L330.33 290.51L330.51 290.52L330.69 290.53L330.87 290.53L331.04 290.54L331.22 290.54L331.4 290.55L331.57 290.55L331.75 290.55L331.93 290.56L332.1 290.56L332.84 290.56L333.57 290.57L334.31 290.58L335.04 290.58L335.77 290.59L336.51 290.6L337.24 290.6L337.97 290.61L338.71 290.62L339.44 290.62L340.17 290.63L340.91 290.63L341.64 290.64L342.37 290.64L343.11 290.65L343.84 290.65L344.57 290.66L345.31 290.66L346.04 290.66L346.78 290.67L347.51 290.67L348.24 290.67L348.98 290.67L349.71 290.68L350.44 290.68L351.18 290.68L351.91 290.68L352.64 290.68L353.38 290.68L354.11 290.68L354.84 290.68L355.58 290.68L356.31 290.67L357.04 290.67L357.78 290.67L358.51 290.66L359.25 290.66L359.98 290.65L360.71 290.65L361.45 290.64L361.81 290.64L362.17 290.63L362.53 290.61L362.89 290.59L363.24 290.56L363.6 290.52L363.95 290.48L364.3 290.44L364.65 290.39L365 290.33L365.35 290.27L365.69 290.2L366.03 290.13L366.38 290.05L366.72 289.97L367.05 289.88L367.39 289.79L367.72 289.69L368.06 289.58L368.39 289.47L368.72 289.35L369.05 289.23L369.37 289.1L369.7 288.97L370.02 288.83L370.34 288.68L370.66 288.53L370.97 288.38L371.29 288.22L371.6 288.05L371.91 287.88L372.22 287.7L372.53 287.52L372.83 287.33L373.13 287.13L373.43 286.93L373.73 286.73L374.03 286.52L374.32 286.3L374.62 286.08L374.97 285.81L375.32 285.55L375.67 285.3L376.03 285.05L376.39 284.81L376.75 284.57L377.11 284.34L377.48 284.12L377.84 283.91L378.21 283.7L378.58 283.49L378.96 283.3L379.33 283.11L379.71 282.92L380.09 282.75L380.47 282.58L380.86 282.41L381.25 282.26L381.64 282.11L382.03 281.96L382.42 281.83L382.82 281.7L383.22 281.58L383.62 281.46L384.03 281.35L384.44 281.25L384.85 281.16L385.26 281.07L385.68 280.99L386.1 280.92L386.52 280.85L386.95 280.8L387.37 280.75L387.81 280.7L388.24 280.67L388.68 280.64L389.12 280.62L389.56 280.6L390.01 280.6L390.46 280.6L390.79 280.6L391.11 280.6L391.44 280.6L391.77 280.59L392.1 280.59L392.43 280.58L392.76 280.57L393.09 280.55L393.42 280.54L393.75 280.52L394.08 280.5L394.41 280.48L394.74 280.46L395.06 280.43L395.39 280.41L395.72 280.39L396.05 280.36L396.38 280.33L396.71 280.31L397.04 280.28L397.37 280.25L397.7 280.23L398.03 280.2L398.36 280.17L398.69 280.14L399.02 280.12L399.35 280.09L399.68 280.07L400.01 280.04L400.34 280.02L400.66 280L400.99 279.98L401.32 279.96L401.65 279.94L401.98 279.92L402.31 279.91L402.64 279.89L402.97 279.88L403.3 279.87L403.63 279.87L403.79 279.86L403.96 279.86L404.12 279.86L404.28 279.86L404.45 279.87L404.61 279.87L404.78 279.87L404.95 279.88L405.11 279.88L405.28 279.89L405.45 279.9L405.61 279.91L405.78 279.92L405.95 279.94L406.11 279.95L406.28 279.97L406.45 279.99L406.61 280.01L406.78 280.03L406.95 280.05L407.11 280.07L407.28 280.1L407.44 280.13L407.6 280.16L407.77 280.19L407.93 280.22L408.09 280.26L408.25 280.3L408.41 280.33L408.57 280.38L408.73 280.42L408.88 280.47L409.04 280.51L409.19 280.56L409.34 280.62L409.49 280.67L409.64 280.73L409.79 280.79L409.94 280.85L410.08 280.91L410.51 281.1L410.94 281.29L411.37 281.47L411.8 281.64L412.23 281.81L412.67 281.97L413.1 282.12L413.54 282.27L413.97 282.41L414.41 282.55L414.85 282.68L415.29 282.81L415.73 282.93L416.17 283.05L416.61 283.16L417.05 283.27L417.5 283.38L417.94 283.48L418.39 283.58L418.83 283.67L419.28 283.76L419.73 283.84L420.17 283.92L420.62 284L421.07 284.08L421.52 284.15L421.97 284.22L422.42 284.29L422.87 284.35L423.32 284.41L423.78 284.47L424.23 284.53L424.68 284.58L425.14 284.63L425.59 284.69L426.04 284.74L426.5 284.78L426.95 284.83L427.41 284.88L427.86 284.92L428.19 285L428.51 285.08L428.84 285.15L429.16 285.23L429.49 285.3L429.82 285.38L430.14 285.45L430.47 285.53L430.8 285.6L431.12 285.67L431.45 285.74L431.78 285.81L432.1 285.88L432.43 285.95L432.76 286.02L433.09 286.09L433.41 286.15L433.74 286.22L434.07 286.28L434.4 286.35L434.73 286.41L435.06 286.48L435.38 286.54L435.71 286.6L436.04 286.66L436.37 286.72L436.7 286.78L437.03 286.84L437.36 286.9L437.69 286.95L438.02 287.01L438.35 287.07L438.68 287.12L439.01 287.18L439.34 287.23L439.67 287.29L440 287.34L440.33 287.39L440.66 287.44L440.99 287.49L441.1 287.53L441.2 287.56L441.31 287.6L441.41 287.63L441.51 287.67L441.62 287.71L441.72 287.74L441.83 287.78L441.93 287.82L442.03 287.86L442.14 287.89L442.24 287.93L442.34 287.97L442.45 288.01L442.55 288.05L442.65 288.09L442.76 288.13L442.86 288.17L442.96 288.21L443.07 288.25L443.17 288.29L443.27 288.33L443.38 288.37L443.48 288.41L443.58 288.45L443.69 288.49L443.79 288.53L443.89 288.57L443.99 288.62L444.1 288.66L444.2 288.7L444.3 288.74L444.41 288.79L444.51 288.83L444.61 288.87L444.71 288.92L444.82 288.96L444.92 289.01L445.02 289.05L445.12 289.1L445.31 289.17L445.49 289.25L445.67 289.33L445.86 289.41L446.04 289.48L446.23 289.55L446.42 289.63L446.6 289.7L446.79 289.77L446.98 289.83L447.17 289.9L447.36 289.97L447.55 290.03L447.74 290.1L447.94 290.16L448.13 290.22L448.32 290.28L448.52 290.33L448.71 290.39L448.9 290.45L449.1 290.5L449.29 290.55L449.49 290.6L449.69 290.65L449.88 290.7L450.08 290.75L450.27 290.79L450.47 290.83L450.67 290.88L450.86 290.92L451.06 290.96L451.26 290.99L451.46 291.03L451.65 291.06L451.85 291.1L452.05 291.13L452.24 291.16L452.44 291.18L452.64 291.21L452.84 291.23L453.2 291.27L453.56 291.28L453.91 291.27L454.26 291.25L454.6 291.2L454.93 291.14L455.26 291.06L455.58 290.96L455.89 290.84L456.19 290.71L456.48 290.57L456.76 290.41L457.03 290.23L457.3 290.05L457.55 289.85L457.79 289.63L458.02 289.41L458.23 289.17L458.43 288.92L458.62 288.67L458.8 288.4L458.97 288.13L459.11 287.84L459.25 287.55L459.37 287.25L459.47 286.95L459.56 286.64L459.63 286.32L459.69 286L459.72 285.68L459.74 285.35L459.75 285.02L459.73 284.68L459.7 284.35L459.64 284.01L459.57 283.67L459.47 283.33L459.36 283L459.22 282.66L459.07 282.32L458.96 282.11L458.85 281.89L458.73 281.68L458.62 281.47L458.5 281.26L458.38 281.04L458.26 280.83L458.14 280.63L458.02 280.42L457.89 280.21L457.76 280L457.63 279.8L457.5 279.59L457.37 279.39L457.23 279.18L457.1 278.98L456.96 278.78L456.82 278.58L456.68 278.38L456.54 278.18L456.39 277.98L456.25 277.78L456.1 277.58L455.96 277.39L455.81 277.19L455.66 277L455.51 276.81L455.36 276.61L455.21 276.42L455.05 276.23L454.9 276.04L454.75 275.85L454.59 275.66L454.43 275.47L454.28 275.29L454.12 275.1L453.96 274.92L453.8 274.73L453.65 274.55L453.49 274.37L453.27 274.12L453.06 273.88L452.84 273.64L452.62 273.4L452.4 273.16L452.18 272.93L451.96 272.69L451.74 272.46L451.51 272.22L451.29 271.99L451.06 271.76L450.83 271.53L450.61 271.3L450.38 271.07L450.15 270.84L449.92 270.61L449.69 270.38L449.46 270.15L449.23 269.92L449 269.69L448.77 269.47L448.54 269.24L448.31 269.01L448.08 268.78L447.84 268.56L447.61 268.33L447.38 268.1L447.15 267.87L446.92 267.64L446.69 267.41L446.46 267.19L446.23 266.96L446 266.73L445.77 266.5L445.55 266.26L445.32 266.03L445.09 265.8L444.87 265.57L444.65 265.33L444.42 265.1L444.37 265.04L444.31 264.98L444.26 264.92L444.21 264.86L444.16 264.8L444.11 264.73L444.06 264.67L444.01 264.6L443.96 264.53L443.91 264.47L443.86 264.4L443.81 264.33L443.77 264.26L443.72 264.19L443.68 264.11L443.64 264.04L443.59 263.97L443.55 263.89L443.51 263.82L443.47 263.74L443.44 263.67L443.4 263.59L443.36 263.51L443.33 263.44L443.29 263.36L443.26 263.28L443.23 263.2L443.2 263.13L443.17 263.05L443.14 262.97L443.12 262.89L443.09 262.81L443.07 262.73L443.04 262.65L443.02 262.58L443 262.5L442.99 262.42L442.97 262.34L442.95 262.26L442.94 262.19L442.79 261.32L442.63 260.45L442.45 259.6L442.25 258.76L442.05 257.93L441.83 257.1L441.59 256.28L441.34 255.48L441.08 254.68L440.8 253.89L440.51 253.12L440.2 252.35L439.87 251.59L439.54 250.84L439.18 250.1L438.82 249.37L438.43 248.65L438.03 247.94L437.62 247.24L437.19 246.55L436.75 245.88L436.29 245.21L435.81 244.55L435.32 243.9L434.82 243.26L434.29 242.64L433.76 242.02L433.2 241.42L432.63 240.82L432.04 240.24L431.44 239.67L430.82 239.11L430.19 238.56L429.54 238.02L428.87 237.49L428.18 236.98L427.48 236.47L426.76 235.98L426.03 235.5L425.28 235.03L424.91 234.81L424.53 234.59L424.16 234.37L423.79 234.15L423.41 233.94L423.03 233.73L422.65 233.52L422.27 233.32L421.89 233.11L421.51 232.91L421.12 232.71L420.74 232.51L420.35 232.31L419.97 232.12L419.58 231.92L419.19 231.73L418.8 231.54L418.42 231.35L418.03 231.15L417.64 230.96L417.25 230.77L416.86 230.58L416.47 230.39L416.07 230.2L415.68 230.02L415.29 229.83L414.9 229.64L414.51 229.44L414.12 229.25L413.74 229.06L413.35 228.87L412.96 228.67L412.57 228.48L412.18 228.28L411.8 228.09L411.41 227.89L411.03 227.69L410.65 227.48L410.26 227.28L409.88 227.07L409.62 226.93L409.35 226.78L409.09 226.64L408.82 226.49L408.55 226.34L408.29 226.2L408.02 226.05L407.76 225.9L407.5 225.75L407.23 225.6L406.97 225.45L406.7 225.3L406.44 225.15L406.18 224.99L405.92 224.84L405.65 224.69L405.39 224.53L405.13 224.38L404.87 224.22L404.61 224.06L404.35 223.9L404.09 223.75L403.83 223.59L403.58 223.42L403.32 223.26L403.06 223.1L402.81 222.94L402.55 222.77L402.3 222.6L402.05 222.44L401.8 222.27L401.54 222.1L401.29 221.93L401.04 221.76L400.8 221.59L400.55 221.41L400.3 221.24L400.06 221.06L399.81 220.88L399.57 220.7L397.92 219.49L396.27 218.29L394.62 217.1L392.96 215.92L391.29 214.76L389.62 213.6L387.94 212.45L386.26 211.32L384.57 210.19L382.87 209.08L381.17 207.98L379.46 206.9L377.75 205.82L376.02 204.76L374.29 203.72L372.55 202.69L370.81 201.67L369.06 200.66L367.29 199.67L365.53 198.7L363.75 197.74L361.96 196.8L360.17 195.87L358.37 194.96L356.56 194.07L354.74 193.19L352.91 192.33L351.07 191.49L349.22 190.66L347.36 189.85L345.5 189.06L343.62 188.29L341.73 187.54L339.84 186.81L337.93 186.09L336.01 185.4L334.08 184.72L332.14 184.07L330.19 183.44L328.23 182.82L327.47 182.59L326.7 182.37L325.93 182.15L325.16 181.95L324.39 181.74L323.62 181.55L322.85 181.36L322.07 181.18L321.3 181L320.52 180.84L319.74 180.67L318.97 180.51L318.19 180.36L317.41 180.22L316.63 180.07L315.85 179.94L315.06 179.81L314.28 179.68L313.5 179.55L312.71 179.44L311.93 179.32L311.14 179.21L310.36 179.1L309.57 179L308.78 178.9L308 178.8L307.21 178.71L306.42 178.62L305.63 178.53L304.84 178.44L304.05 178.36L303.26 178.28L302.47 178.2L301.68 178.12L300.89 178.04L300.1 177.96L299.3 177.89L298.51 177.82L297.72 177.74L296.93 177.67L296.63 177.64L296.33 177.62L296.03 177.59L295.74 177.56L295.44 177.54L295.14 177.51L294.84 177.49L294.54 177.46L294.24 177.44L293.94 177.41L293.65 177.39L293.05 177.33L292.75 177.31L292.45 177.28L292.15 177.26L291.85 177.23L291.55 177.21L291.26 177.18L290.96 177.16L290.66 177.13L290.36 177.1L290.06 177.08L289.76 177.05L289.47 177.02L289.17 176.99L288.87 176.97L288.57 176.94L288.27 176.91L287.97 176.88L287.68 176.85L287.38 176.82L287.08 176.79L286.78 176.76L286.49 176.73L286.19 176.69L285.89 176.66L285.59 176.63L285.3 176.59L285 176.56L284.92 176.55L284.84 176.53L284.76 176.52L284.68 176.51L284.6 176.49L284.52 176.47L284.44 176.46L284.36 176.44L284.28 176.41L284.2 176.39L284.12 176.37L284.04 176.34L283.96 176.32L283.88 176.29L283.8 176.26L283.72 176.23L283.64 176.2L283.56 176.17L283.48 176.14L283.4 176.1L283.33 176.07L283.25 176.03L283.17 175.99L283.1 175.96L283.02 175.92L282.95 175.88L282.87 175.84L282.8 175.79L282.73 175.75L282.65 175.71L282.58 175.66L282.51 175.62L282.44 175.57L282.38 175.52L282.31 175.48L282.24 175.43L282.18 175.38L282.12 175.33L282.05 175.28L281.99 175.23L281.29 174.63L280.59 174.04L279.89 173.45L279.18 172.86L278.48 172.28L277.77 171.7L277.05 171.12L276.34 170.55L275.62 169.98L274.9 169.41L274.17 168.85L273.45 168.29L272.72 167.74L271.99 167.19L271.26 166.64L270.52 166.09L269.78 165.55L269.04 165.01L268.3 164.48L267.55 163.95L266.81 163.42L266.05 162.9L265.3 162.38L264.55 161.87L263.79 161.35L263.03 160.85L262.26 160.34L261.5 159.84L260.73 159.34L259.96 158.85L259.18 158.36L258.41 157.87L257.63 157.39L256.85 156.91L256.06 156.43L255.28 155.96L254.49 155.49L253.7 155.03L252.9 154.57L252.11 154.11L251.63 153.84L251.15 153.57L250.67 153.31L250.19 153.04L249.7 152.78L249.22 152.52L248.73 152.27L248.25 152.01L247.76 151.76L247.27 151.52L246.78 151.27L246.29 151.03L245.79 150.79L245.3 150.56L244.8 150.33L244.3 150.1L243.81 149.88L243.31 149.66L242.8 149.44L242.3 149.23L241.79 149.02L241.29 148.81L240.78 148.61L240.27 148.41L239.76 148.22L239.24 148.03L238.73 147.84L238.21 147.66L237.69 147.48L237.17 147.31L236.65 147.14L236.13 146.98L235.6 146.82L235.07 146.66L234.54 146.51L234.01 146.36L233.48 146.22L232.94 146.09L232.41 145.96L231.87 145.83L231.72 145.8L231.57 145.76L231.42 145.73L231.27 145.7L231.12 145.67L230.97 145.64L230.82 145.62L230.67 145.59L230.52 145.57L230.37 145.55L230.22 145.53L230.07 145.52L229.92 145.51L229.78 145.5L229.63 145.5L229.49 145.5L229.34 145.5L229.2 145.5L229.2 145.5L229.06 145.51ZM56.38 328.24L56.64 328.35L56.39 328.31L56.14 328.28L55.89 328.25L55.63 328.22L55.6 327.9L55.86 328.02L56.12 328.13L56.12 328.13L56.38 328.24Z" id="a55iOkvKLf"></path><linearGradient id="gradientd1GwaetFRD" gradientUnits="userSpaceOnUse" x1="256" y1="0" x2="256" y2="512"><stop style="stop-color: #96deda;stop-opacity: 1" offset="0%"></stop><stop style="stop-color: #50c9c3;stop-opacity: 1" offset="100%"></stop></linearGradient></defs><g><g><use xlink:href="#a55iOkvKLf" opacity="1" fill="url(#gradientd1GwaetFRD)"></use></g></g></svg>