<svg xmlns="http://www.w3.org/2000/svg" xmlns:xlink="http://www.w3.org/1999/xlink" viewBox="0 0 512 512" width="512" height="512">
  <defs>
    <path d="M287.3 2l10.2 1.4 10 1.8 10 2.3 9.8 2.6 9.6 3 9.3 3.4 9.3 3.7 9 4.2 9 4.4 8.7 4.7 8.5 5L399 44l8 5.6 8 6 7.6 6.3 7.3 6.5 7 6.8 6.8 7 6.5 7.4 6.3 7.6 6 7.8 5.6 8 5.4 8.4 5 8.5 4.8 8.7 4.4 9 4 9 3.8 9.3 3.3 9.4 3 9.7 2.6 9.8 2.2 10 1.8 10 1.5 10.2 1 10.3.8 10.4.2 10.6-.2 10.6-.7 10.4-1 10.3-1.4 10.2-1.8 10-2.3 10-2.6 9.8-3 9.6-3.4 9.3-3.7 9.3-4.2 9-4.4 9-4.7 8.7-5 8.5-5.4 8.3-5.7 8-6 8-6.3 7.6-6.5 7.3-6.8 7-7 6.8-7.4 6.5-7.6 6.3-8 6-8 5.6-8.2 5.4-8.5 5-8.7 4.8-9 4.4-9 4-9.3 3.8-9.4 3.3-9.7 3-9.8 2.6-10 2.2-10 1.8-10.2 1.5-10.3 1-10.4.8-10.6.2-10.6-.2-10.4-.7-10.3-1-10.2-1.4-10-1.8-10-2.3-9.8-2.6-9.6-3-9.3-3.4-9.3-3.7-9-4.2-9-4.4-8.7-4.7-8.5-5-8.3-5.4-8.2-5.7-7.8-6-7.6-6.3-7.3-6.5-7-6.8-6.8-7-6.5-7.4-6.3-7.6-6-8-5.6-8-5.4-8.2-5-8.5-4.8-8.7-4.4-9-4-9-3.8-9.3L13 337l-3-9.7-2.5-9.8-2.3-10-2-10L2 287.3 1 277 0 266.6 0 256l.2-10.6L1 235l1-10.3 1.4-10.2 1.8-10 2.3-10 2.6-9.8 3-9.6 3.4-9.3 3.7-9.3 4.2-9 4.4-9 4.7-8.7 5-8.5L44 113l5.6-8.2 6-7.8 6.3-7.6 6.5-7.3 6.8-7 7-6.8 7.4-6.5 7.6-6.3 7.8-6 8-5.6 8.4-5.4 8.5-5 8.7-4.8 9-4.4 9-4 9.3-3.8L175 13l9.7-3 9.8-2.5 10-2.3 10-2L224.7 2 235 1l10.4-.8L256 0l10.6.2L277 1V.6l10.3 1zM229 145.4H228.3l-.2.2h-.4v.2h-.4v.2h-.3v.2l-.2.2v.2h-.2v.2l-.2.2v.3h-.2v.6l-.2.3v1.7h.2v.6h.2v.4h.2v.3h.2v.2l.2.2h.2v.3h.2v.2l.2.2.5.6.4.5.4.4.3.5.5.5.3.5.3.5.5.5.3.5.3.5.4.5.3.6.2.5.2.5.3.5.2.6.3.4.2.5.2.5.3.5.2.6v.5l.3.7.2.5.2.6.2.5v.6l.3.4.2.6.2.6.2.5v.7l.2.6.2.5.2.6v.6l.3.5v.6l.2.7.2.5v.5l.2.2v.5h.2v.8l.2.2v.5l.2.2v.6h.2V178.8l.2.3v.5l.2.3v1l.2.4V184.7l-.2.2v.2h-.2v.3l-.2.2v.2h-.2v.2l-.3.2h-.2l-.2.3v.2h-.3l-.2.2-.3.3-.2.2h-.3l-.2.3h-.3l-.2.3h-.3l-.3.3h-.2l-.3.2h-.2l-.2.2v.2h-.4v.2h-.4v.2h-.4v.2h-.2l-.3.2h-.2v.2h-.2l-.3.2h-.2l-.2.2h-.3v.2h-.2l-.3.2-.2.2h-.2l-2.4 1.3-2.2 1.2-2.3 1.3-2.3 1.2-2.2 1.3-2.2 1.3-2.2 1.3-2 1.4-2.3 1.3-2.2 1.4-2.2 1.4-2 1.4-2.3 1.4-2 1.4-2.2 1.4-2 1.4-2.2 1.5-2 1.3-2.2 1.5-2 1.5-2 1.5-2.2 1.5-2 1.5-2 1.5-2 1.6-2 1.4-2 1.6-2 1.6-2 1.6-2 1.6-2 1.6-2 1.7-2 1.7-2 1.7-1.8 1.7-2 1.8-2 1.7-1.8 1.7-2 1.7-1.8 1.7-1 1-.8.7-1 1-1 .8-.8 1-1 .8-1 1-.8.8-1 1-1 .8-.8 1-1 .8-.8 1-1 1-.8.8-1 1-.7 1-1 .8-.8 1-1 1-.7 1-1 .8-.7 1-.8 1-.8 1-.8 1-1 1-.7 1-1 1-.7 1-.8 1-.8 1-.8 1-.8 1-.8 1-.8 1-.7 1.2-.8 1-.8 1-.7 1.2v.2h-.2v.3h-.2v.3h-.2v.3l-.2.3-.2.3-.2.2v.2h-.2v.3h-.2v.3h-.2v.3h-.2v.3l-.2.2-.2.3v.2l-.2.2v.2l-.2.3-.2.2v.2h-.2v.5h-.2v.2l-.2.2-.2.5v.2l-.3.3-.2.3-.2.3v.4l-.2.3-.2.3-.2.3-.2.2-.2.3-.3.2-.2.3-.2.2-.2.3-.2.2-.2.2-.3.3-.2.2-.2.2h-.2l-.3.3-.2.2-.2.2-.3.2h-.3l-.2.2-.3.2-.3.2-.3.2h-.2l-.3.3-.3.3h-.3l-.4.3h-.3l-.3.3h-.7l-.3.3-1 .4-1 .4-1 .6-1 .4-1 .4-1 .5-1 .3-1 .4-1 .4-1 .6-1 .4-1 .4-1 .5-1 .3-1 .4-1 .5-1 .4-1 .4-1 .5-.8.4-1 .3-1 .5-1 .4-1 .4-1 .5-1 .5-1 .4-1 .4-1 .4-1 .4-1 .5-1 .4-1 .6-1 .4-1 .4-1 .5-1 .3-1 .4-.8.5-1 .4H59l-.2.2h-.2l-.2.2h-.2l-.2.2H58l-.2.2h-.2v.2H57l-.2.2h-.2v.2H56v-.2h-1.3l-.2.2h-.2v.2h-.3v.2H54v.2l-.2.2v.2h-.2v.2l-.2.2v.7l-.2.2v.7H53v.2h-.2v.2h-.2v.4h-.2v.4h.2l.2.2h.2v.2h.2v.2h.2v.2h.4v.2h.2v.2h.4v.2H55v.2h1l.3.2h.6l.4.2h.8l.3.2h1l.2.2H61l.3.2h1.3l.3.2h2.5l.3.2H77.5l.7-.2H85l.7-.2h7l.7-.2H100.5l.4.2h.8l.4.2h.3l.4.2.4.2h.5l.3.2.4.2h.3l.3.3.4.3.3.2.3.2.3.3.4.2.3.3.3.2.3.3.3.3.3.3v.3l.4.2.2.4.3.3v.3l.3.4.3.4.2.5.2.4.2.4.2.4.2.4.2.5.2.4.2.5.3.4.2.3.2.4.2.4.2.6.3.3.3.3.2.4.3.4.3.5.3.4.4.2.3.4.3.4.3.3.3.4.3.4.2.4.3.4.3.3.4.5.3.3.3.3.4.5.3.3.3.4.4.3.3.3.3.4.4.3.3.3.4.3.3.5.3.3.4.3v.2h.2v.2h.2v.2h.4v.2h.2v.2h.2v.2h.4v.2h.4v.2H126.3v-.2h.2v-.2h.2v-.2h.2v-.4h.2v-.8h.2V350.4h.2V306.8l.2-.3v-.5l.2-.3v-.3l.3-.4.2-.2v-.3l.2-.2.2-.2v-.3l.3-.2v-.2l.2-.2.2-.3.2-.2h.2v-.4l.4-.2.2-.2.2-.2.2-.3.2-.2.3-.2.2-.2h.3l.2-.3.3-.2.2-.2.3-.2h.3l.3-.3 1.4-1 1.4-1 1.4-.8 1.4-1 1.4-1 1.4-.7 1.4-1 1.4-.7 1.5-.8 1.3-.8 1.4-.8 1.5-.8 1.4-.7 1.5-.8 1.5-.8 1.5-.7 1.5-.7 1.4-.6 1.4-.7 1.5-.6 1.4-.8 1.5-.6 1.4-.6 1.6-.5 1.5-.6 1.5-.6 1.6-.5 1.5-.7 1.7-.4 1.5-.6 1.6-.5 1.6-.5 1.6-.5 1.6-.4 1.6-.4 1.6-.3 1.6-.5 1.6-.4 1.6-.2 1.6-.3 2-.4 2-.2 2-.3 1.8-.4 2-.2 2-.3 2-.3 1.8-.2 2-.3 2-.2 2-.3 1.8-.2 2-.2 2-.2 2-.2 2-.2 1.8-.2 2-.2h2l2-.3h2l1.8-.3h2l2-.2h2l2-.2h1.8l2-.2h2l2-.2h5.8l2-.2H272.6v.4l-.2.2v.8l-.2.2V271.4h.2v.4h.2v.3h.4v.2h.2l.2.2h.3v.2h.3l.3.2h.4l.2.2h.2l.3.2h.7l.2.2h.5l.2.2h.7v.2h1.1l.3.2H280.4l.3.2h1.3l1.4.2h1.3l1.3.2h2.5l1.3.2h4l1.3.2H311.6l1.3-.2h2.5l1.3-.2h2.5l1.3-.2h1.3l1.2-.2h1.2l1.3-.2h1.3l1.3-.2h1.3l1.2-.2 1.3-.2H334l.3-.2h2.8l.2-.2H340.8v.4h.2l-.4.3-.5.2-.3.2-.4.2-.5.2-.4.2-.4.2-.4.3-.5.2-.3.2-.4.2h-.4l-.6.4-.4.2-.4.2-.4.2-1 .5-1.2.6-.8.6-.4.2-.5.2-.4.2-.5.3-.4.2-.4.2h-.4l-.4.3-.5.3-.4.2-.5.2-.4.2-.4.2-.4.3-.4.2h-.4l-.5.3h-.2l-.2.2h-.2l-.2.2h-.3l-.2.2h-.5v.2h-.2l-.2.2h-.2v.2h-.2v.2h-.3v.3h-.2v.3h-.2v.2h-.2v.4h-.2v.3h-.2v1.9l.2.2v.3h.2v.2h.2v.2h.2v.3h.4v.2h.4v.2h.4v.2h.8v.2H323.8l.3.2H325v.2H326l.3.2h1.4l.2.2H331l.2.2h32.3l.3-.2h1.1l.3-.2h.7l.3-.2h.4l.4-.2h.3l.4-.2h.4l.3-.3h.4l.4-.2h.3l.3-.2h.3l.4-.3h.3l.3-.3h.3l.3-.3.2-.3.3-.2.3-.2.3-.2h.4l.3-.3.3-.2.3-.2.3-.2.4-.2.3-.3.4-.2.3-.3.4-.2.4-.2.3-.3.5-.2h.3l.4-.3.4-.2.4-.2.3-.2h.4l.4-.3h.5l.4-.3h.3l.3-.3h.4l.4-.2h.4l.4-.2h.4l.4-.3h.9l.3-.2h1.3l.4-.2H388l.5-.2h6.5l.4-.2h2.5l.3-.2h2l.3-.2H407.6l.3.2h.8l.3.2h.3l.2.2h.3l.3.2h.3l.5.3.4.3.4.2h.4l.4.3.5.2h.4l.5.3h.5l.4.3h.5l.3.2h.4l.5.3.4.2h.4l.5.2h.4l.4.2h.4l.5.2h.9l.4.2h1l.5.2h.4l.5.2H424l.5.2h1.4l.5.2h1.3l.2.2h.6l.4.2h.3l.3.2h.8l.3.2h.7l.4.2h.7l.4.2h.7l.3.2h.4l.4.2h1.1l.3.2h.7l.3.2h1l.3.2h.7l.3.2h1l.3.2h.7l.2.2h.4l.2.2h.4v.2h.6v.2h.4l.2.2h.4v.2h.4l.2.2h.2l.2.2h.2l.3.2h.4l.2.2.2.2h.4l.2.2h.4l.2.2h.2l.3.2h.5l.2.2h.2l.3.2H450l.3.2H451v.2h.9l.2.2H455l.3-.2.3-.2h.2l.3-.2.3-.2.2-.2h.3l.3-.3.2-.4.2-.2.2-.2.2-.3.2-.3.2-.3.2-.3v-.2l.3-.3v-.3l.2-.3v-.7l.2-.3v-2.3l-.2-.4v-.3l-.3-.3v-.4l-.2-.2-.3-.3v-.2l-.2-.2v-.3l-.2-.2-.2-.2v-.4l-.2-.2-.2-.2v-.2l-.2-.2-.2-.2v-.2l-.2-.2-.2-.2v-.2l-.3-.2v-.2l-.3-.2v-.2l-.2-.2-.2-.2v-.2l-.3-.2v-.2l-.3-.2v-.2l-.3-.2h-.3v-.3l-.3-.2v-.2l-.3-.2-.2-.3h-.2v-.3l-.3-.3h-.2l-.2-.4-.2-.2-.2-.2-.2-.3-.2-.3-.3-.2-.2-.3-.2-.2-.2-.2-.2-.3-.2-.2-.2-.2-.3-.2v-.2l-.3-.2-.2-.3h-.3l-.2-.3-.2-.2-.3-.3-.2-.2-.2-.2-.2-.2-.2-.3-.2-.2h-.3v-.4l-.3-.2-.2-.2-.3-.2-.2-.3-.2-.2-.3-.2-.2-.3-.2-.2v-.2l-.4-.3-.2-.2h-.2v-.2l-.2-.2v-.2h-.2v-.2l-.2-.2v-.2h-.2v-.4l-.2-.2v-.4l-.2-.2v-.4l-.2-1-.2-.8-.2-.8v-.8l-.3-1-.2-.7-.2-.7-.3-.8-.2-.8-.2-.8-.3-1-.3-.7-.3-.7-.5-.8-.3-.7-.4-.6-.4-.8-.4-.7-.4-.8-.4-.6-.4-.7-.5-.8-.5-.6-.5-.7-.5-.7-.5-.7-.5-.6-.6-.6-.6-.6-.6-.6-.6-.5-.6-.6-.6-.4-.7-.6-.6-.5-.8-.5-.7-.5-.7-.5-.8-.5-.7-.5-.4-.2-.5-.2-.3-.2-.4-.3h-.4l-.4-.3-.4-.2-.3-.2-.4-.2h-.5l-.4-.3-.3-.2-.3-.2-.4-.2h-.4l-.4-.3-.4-.2-.4-.2-.4-.2h-.4l-.4-.2-.3-.2-.5-.2-.4-.2-.3-.2-.4-.2-.4-.2-.5-.2-.4-.2h-.3l-.3-.3-.4-.3-.4-.2-.4-.2-.4-.2h-.4l-.4-.3-.4-.2-.3-.2-.4-.2h-.4l-.3-.2-.2-.2h-.2l-.3-.3h-.2l-.3-.3h-.2l-.3-.3h-.3l-.2-.3h-.3l-.3-.3h-.2l-.3-.2h-.4l-.2-.3h-.3v-.3h-.4l-.3-.3-.2-.3h-.2l-.2-.3h-.3l-.2-.3h-.2l-.3-.2-.2-.2-.3-.2h-.2l-.3-.3h-.2l-.3-.2-.2-.2-.3-.2-.2-.2h-.2l-.2-.3-.2-.3-1.7-1.2-1.7-1.2-1.7-1.2-1.6-1-1.7-1.2-1.7-1.2-1.7-1.2-1.7-1-1.7-1.2-1.7-1-1.8-1.2-1.7-1-1.8-1.2-1.7-1-1.7-1-1.8-1-1.7-1-1.7-1-1.7-1-1.8-1-1.8-1-1.7-1-1.8-1-1.8-.8-1.8-1-2-.8-1.7-1-2-.7-1.8-.8-1.8-.8-2-1-1.8-.7-2-.8-1.8-.7-2-.7-1.8-.6-2-.7-2-.6-1.8-.6-2-.6-.7-.2-.8-.2-.8-.3h-.8l-.8-.3h-.8l-.8-.3-.7-.2-.7-.2-.8-.2h-.8l-.7-.3h-.8l-.8-.3h-.8l-.8-.3-.7-.2h-.7l-.8-.3h-.8l-.8-.2h-1l-.6-.2h-1.6l-.8-.2h-.8l-.8-.2h-.8l-.8-.2h-1.5l-.8-.2h-.8l-.8-.2h-1.7l-.8-.2H297l-.4-.2h-2l-.3-.2H292v-.2h-2.1l-.3-.2H288l-.3-.2H286l-.4-.2h-1.2v-.2H283.7v-.2h-.4v-.2h-.4v-.2h-.4v-.2h-.2l-.2-.2-.2-.2-.7-.6-.7-.6-.7-.6-.8-.5-.7-.7-.7-.6-.8-.6-.7-.4-.7-.6-.7-.6-.8-.6-.8-.5-.7-.6-.7-.5-.7-.6-.8-.5-.7-.4-.8-.6-.7-.5-.8-.6-.7-.6-.8-.5-.7-.6-.8-.5-.7-.7-.8-.5-.7-.5-.8-.5-.8-.5-.7-.5-.8-.4-.8-.5-.8-.6-.8-.5-.7-.6-.7-.4-.8-.5-.8-.5-.8-.4-1-.5-.4-.2-.4-.2-.5-.3-.5-.3-.5-.2-.5-.3-.5-.2-.4-.3-.5-.2-.5-.3-.5-.2-.5-.3-.5-.2-.5-.2-.5-.3-.5-.2h-.5l-.5-.3-.5-.3-.5-.2-.5-.2-.5-.2-.5-.2-.5-.2-.5-.2-.6-.2-.5-.2h-.5l-.5-.3-.5-.2-.5-.2h-.6l-.4-.2h-.5l-.5-.3h-.5l-.5-.3h-.6l-.6-.2-.5-.2H231v-.2h-2zM56.5 328.2l.2.2H56l-.4-.2v-.3h.3l.4.2z" id="a"/>
    <linearGradient id="b" gradientUnits="userSpaceOnUse" x1="256" x2="256" y2="512">
      <stop offset="0%" stop-color="#96deda"/>
      <stop offset="100%" stop-color="#50c9c3"/>
    </linearGradient>
  </defs>
  <use xlink:href="#a" fill="url(#b)"/>
</svg>
